<svg width="28" height="22" viewBox="0 0 28 22" fill="none" xmlns="http://www.w3.org/2000/svg">
<g clip-path="url(#clip0_1002_128)">
<path d="M27.3678 0.0869141L21.5668 20.356H18.6376L13.9853 4.04186L9.16067 20.356L6.26016 20.3851L0.660156 0.0869141H3.4458L7.81092 17.2735L12.6355 0.0869141H15.5648L20.1596 17.2153L24.5535 0.0869141H27.3678Z" fill="white"/>
<path d="M26.9552 1.1528L27.9587 1.44732C28.0501 1.12775 27.9879 0.783234 27.7905 0.517231C27.5932 0.251229 27.2838 0.0947266 26.9552 0.0947266V1.1528ZM21.3274 20.8188V21.8769C21.7924 21.8769 22.2014 21.5657 22.3308 21.1133L21.3274 20.8188ZM18.4856 20.8188L17.4818 21.1124C17.611 21.5652 18.0202 21.8769 18.4856 21.8769V20.8188ZM13.9721 4.99007L14.9759 4.69652C14.8473 4.24557 14.4408 3.93432 13.9773 3.93201C13.5138 3.9297 13.1042 4.23688 12.9712 4.68653L13.9721 4.99007ZM9.29155 20.8188L9.30192 21.8768C9.75961 21.8722 10.1611 21.5664 10.2924 21.1223L9.29155 20.8188ZM6.47762 20.847L5.47137 21.1317C5.59853 21.5927 6.0154 21.9097 6.48796 21.905L6.47762 20.847ZM1.04478 1.1528V0.0947266C0.718023 0.0947266 0.410081 0.24955 0.212541 0.513152C0.0150016 0.776755 -0.0493817 1.11877 0.038539 1.43749L1.04478 1.1528ZM3.74727 1.1528L4.75911 0.889247C4.64036 0.421615 4.22406 0.0947266 3.74727 0.0947266V1.1528ZM7.98209 17.828L6.97025 18.0915C7.08779 18.5544 7.49704 18.8799 7.96893 18.886C8.44075 18.892 8.85803 18.577 8.98703 18.1173L7.98209 17.828ZM12.6627 1.1528V0.0947266C12.1957 0.0947266 11.7854 0.408576 11.6578 0.863487L12.6627 1.1528ZM15.5045 1.1528L16.5127 0.875427C16.3891 0.414593 15.976 0.0947266 15.5045 0.0947266V1.1528ZM19.9622 17.7716L18.954 18.0489C19.0781 18.5119 19.4943 18.8323 19.968 18.8296C20.4417 18.827 20.8543 18.5019 20.9734 18.0376L19.9622 17.7716ZM24.2249 1.1528V0.0947266C23.749 0.0947266 23.3333 0.420356 23.2137 0.886778L24.2249 1.1528ZM25.9517 0.858273L20.3239 20.5243L22.3308 21.1133L27.9587 1.44732L25.9517 0.858273ZM21.3274 19.7607H18.4856V21.8769H21.3274V19.7607ZM19.4893 20.5252L14.9759 4.69652L12.9684 5.28361L17.4818 21.1124L19.4893 20.5252ZM12.9712 4.68653L8.29065 20.5153L10.2924 21.1223L14.973 5.2936L12.9712 4.68653ZM9.28117 19.7608L6.46727 19.789L6.48796 21.905L9.30192 21.8768L9.28117 19.7608ZM7.48388 20.5623L2.05103 0.868105L0.038539 1.43749L5.47137 21.1317L7.48388 20.5623ZM1.04478 2.21087H3.74727V0.0947266H1.04478V2.21087ZM2.73543 1.41635L6.97025 18.0915L8.99393 17.5645L4.75911 0.889247L2.73543 1.41635ZM8.98703 18.1173L13.6676 1.44211L11.6578 0.863487L6.97713 17.5387L8.98703 18.1173ZM12.6627 2.21087H15.5045V0.0947266H12.6627V2.21087ZM14.4963 1.43017L18.954 18.0489L20.9704 17.4942L16.5127 0.875427L14.4963 1.43017ZM20.9734 18.0376L25.2361 1.41881L23.2137 0.886778L18.951 17.5056L20.9734 18.0376ZM24.2249 2.21087H26.9552V0.0947266H24.2249V2.21087Z" fill="white"/>
</g>
<defs>
<clipPath id="clip0_1002_128">
<rect width="28" height="22" fill="white"/>
</clipPath>
</defs>
</svg>
